<svg xmlns="http://www.w3.org/2000/svg" viewBox="0 0 1200 900">
  <rect width="1200" height="900" fill="#f65a13"/>
  <g fill="none" stroke="#b52d16" stroke-width="4" stroke-linecap="round" stroke-linejoin="round" opacity=".88">
    <path d="M0 118c45-38 75-25 108 4 30-33 72-25 89 8 34-17 75 1 78 34H0M1000 90c32-37 75-31 101 2 34-24 83-8 91 27h8M924 240c42-35 82-21 97 10 34-14 69 5 73 33H882"/>
    <path d="M104 208c18-27 39-27 57 0M113 225l20-39m4 39 21-30M103 218h52"/>
    <path d="M1010 178c18-28 40-27 58 0M1017 198l22-42m3 42 22-31M1007 189h55"/>
    <path d="M255 100c38-35 77-29 96 8 33-24 78-9 87 23h-216M780 65c33-29 69-18 79 10 29-18 61-5 69 20H746"/>
    <path d="M556 30c-18 27-23 51-18 73 5-25 15-44 29-58 13 18 18 39 15 63 17-17 25-38 23-62 23 21 31 44 25 70"/>
    <path d="M560 123c-42-31-90-27-122 6 37 2 63 15 80 37 14-20 28-34 42-43 18 8 34 23 45 43 17-22 43-35 80-37-34-33-82-37-125-6z"/>
    <path d="M600 150v68M558 176c-25 6-43 20-54 42 29-5 51-1 68 13M642 176c25 6 43 20 54 42-29-5-51-1-68 13"/>
    <circle cx="600" cy="205" r="43"/><path d="M574 204c12-13 25-13 38 0 12-13 25-13 38 0M583 228c12 9 24 9 34 0M593 177h14M600 160v-15"/>
    <path d="M556 244c-34 8-58 29-72 62 24-8 48-7 72 4M644 244c34 8 58 29 72 62-24-8-48-7-72 4"/>
    <path d="M532 280c-20 37-31 80-31 129 20 43 53 73 99 89 46-16 79-46 99-89 0-49-11-92-31-129M501 409c-24 40-34 78-29 115M699 409c24 40 34 78 29 115"/>
    <path d="M500 520c-56-11-95 3-117 42 44-6 78 2 103 25M700 520c56-11 95 3 117 42-44-6-78 2-103 25"/>
    <path d="M475 562c-27 31-42 63-46 96M725 562c27 31 42 63 46 96M520 508c-17 35-21 68-12 100M680 508c17 35 21 68 12 100"/>
    <path d="M548 505c-12 49-7 91 15 126h74c22-35 27-77 15-126M535 633c-39 20-61 52-66 96 45-20 78-18 108 5M665 633c39 20 61 52 66 96-45-20-78-18-108 5"/>
    <path d="M497 728c-47 23-74 53-81 90M703 728c47 23 74 53 81 90M560 688c-17 30-23 60-18 89M640 688c17 30 23 60 18 89"/>
    <path d="M455 620c-42-5-76 6-102 34M745 620c42-5 76 6 102 34M450 654l-52 35m353-35 52 35"/>
    <path d="M345 284c-24 10-42 28-54 54 28-7 49-2 65 15 5-27 1-50-11-69zM855 284c24 10 42 28 54 54-28-7-49-2-65 15-5-27-1-50 11-69z"/>
    <path d="M0 758c65-28 115-22 151 17 45-42 97-39 143 2 48-40 101-37 153 6 50-41 101-40 153 0 52-42 105-40 156 3 47-39 98-37 144 2 49-39 99-35 150 10M0 822c72-33 126-25 164 16 48-43 103-39 151 4 47-40 99-37 151 5 50-41 102-39 154 1 52-42 105-39 157 3 48-40 99-37 150 5 48-40 99-35 153 9"/>
    <path d="M46 520c28-32 58-35 89-9 24-31 65-30 86 3 24-18 53-9 65 19M1070 505c24-30 54-31 77-5 28-33 70-24 87 10"/>
    <path d="M218 424c15-25 34-26 49 0M225 446l17-35m7 35 17-28M215 438h45M918 405c15-25 34-26 49 0M925 427l17-35m7 35 17-28M915 419h45"/>
  </g>
  <g fill="#f65a13" stroke="#b52d16" stroke-width="5"><circle cx="600" cy="205" r="3"/><path d="M548 244h104l-15 25h-74z"/></g>
  <path d="M0 865h1200" stroke="#b52d16" stroke-width="8"/>
</svg>